<svg width="80" height="70" viewBox="0 0 80 70" fill="none" xmlns="http://www.w3.org/2000/svg">
  <path
    d="M40 65C18 49 6 36 6 22C6 12.6 13.2 6 22 6C28.3 6 34.2 9.2 38 14.1C41.8 9.2 47.7 6 54 6C62.8 6 70 12.6 70 22C70 36 58 49 40 65Z"
    fill="#7F8F4A"
    fill-opacity="0.9"
  />
  <path
    d="M40 60C20.2 45.1 10 33.9 10 22.5C10 15 15.9 10 22.7 10C28.5 10 33.9 13.7 37.2 18.5L40 22.6L42.8 18.5C46.1 13.7 51.5 10 57.3 10C64.1 10 70 15 70 22.5C70 33.9 59.8 45.1 40 60Z"
    fill="#7F8F4A"
    fill-opacity="0.45"
  />
</svg>
